<mxfile host="app.diagrams.net" modified="2024-02-06T03:53:02.936Z" agent="Mozilla/5.0 (Windows NT 10.0; Win64; x64) AppleWebKit/537.36 (KHTML, like Gecko) Chrome/121.0.0.0 Safari/537.36" etag="Ig9kTzaYH5oeoTTDPjjH" version="23.1.1" type="device">
  <diagram name="Strona-1" id="OVh8FZX_qNRcrEqScDbm">
    <mxGraphModel dx="2261" dy="1925" grid="1" gridSize="10" guides="1" tooltips="1" connect="1" arrows="1" fold="1" page="1" pageScale="1" pageWidth="827" pageHeight="1169" math="0" shadow="0">
      <root>
        <mxCell id="0" />
        <mxCell id="1" parent="0" />
        <mxCell id="df5G3sbtZlax2ATc57wT-1" value="Skanowanie kodu QR kamerą telefonu" style="rounded=1;whiteSpace=wrap;html=1;fillColor=#dae8fc;strokeColor=#6c8ebf;opacity=80;" vertex="1" parent="1">
          <mxGeometry x="40" y="300" width="130" height="60" as="geometry" />
        </mxCell>
        <mxCell id="df5G3sbtZlax2ATc57wT-2" value="Wczytanie obrazka z kodem QR z pamięci telefonu" style="rounded=1;whiteSpace=wrap;html=1;fillColor=#dae8fc;strokeColor=#6c8ebf;opacity=80;" vertex="1" parent="1">
          <mxGeometry x="40" y="380" width="130" height="60" as="geometry" />
        </mxCell>
        <mxCell id="df5G3sbtZlax2ATc57wT-3" value="" style="shape=flexArrow;endArrow=classic;html=1;rounded=0;" edge="1" parent="1">
          <mxGeometry width="50" height="50" relative="1" as="geometry">
            <mxPoint x="180" y="410" as="sourcePoint" />
            <mxPoint x="240" y="380" as="targetPoint" />
          </mxGeometry>
        </mxCell>
        <mxCell id="df5G3sbtZlax2ATc57wT-4" value="" style="shape=flexArrow;endArrow=classic;html=1;rounded=0;" edge="1" parent="1">
          <mxGeometry width="50" height="50" relative="1" as="geometry">
            <mxPoint x="180" y="330" as="sourcePoint" />
            <mxPoint x="240" y="350" as="targetPoint" />
          </mxGeometry>
        </mxCell>
        <mxCell id="df5G3sbtZlax2ATc57wT-5" value="Rozkodowanie QR i wczytanie klucza publicznego przez aplikację" style="rounded=1;whiteSpace=wrap;html=1;fillColor=#dae8fc;strokeColor=#6c8ebf;opacity=80;" vertex="1" parent="1">
          <mxGeometry x="250" y="330" width="130" height="70" as="geometry" />
        </mxCell>
        <mxCell id="df5G3sbtZlax2ATc57wT-6" value="Zapisanie klucza publicznego użytkownika, wykorzystywanie go w komunikacji" style="rounded=1;whiteSpace=wrap;html=1;fillColor=#dae8fc;strokeColor=#6c8ebf;opacity=80;" vertex="1" parent="1">
          <mxGeometry x="470" y="330" width="170" height="70" as="geometry" />
        </mxCell>
        <mxCell id="df5G3sbtZlax2ATc57wT-8" value="" style="shape=flexArrow;endArrow=classic;html=1;rounded=0;" edge="1" parent="1">
          <mxGeometry width="50" height="50" relative="1" as="geometry">
            <mxPoint x="390" y="365" as="sourcePoint" />
            <mxPoint x="460" y="364.71" as="targetPoint" />
          </mxGeometry>
        </mxCell>
        <mxCell id="df5G3sbtZlax2ATc57wT-9" value="Odnalezienie kodu QR innego użytkownika&lt;br&gt;(np. na Facebooku, LinkedInie)" style="rounded=1;whiteSpace=wrap;html=1;fillColor=#dae8fc;strokeColor=#6c8ebf;opacity=80;" vertex="1" parent="1">
          <mxGeometry x="-230" y="330" width="180" height="70" as="geometry" />
        </mxCell>
        <mxCell id="df5G3sbtZlax2ATc57wT-10" value="" style="shape=flexArrow;endArrow=classic;html=1;rounded=0;" edge="1" parent="1">
          <mxGeometry width="50" height="50" relative="1" as="geometry">
            <mxPoint x="-30" y="350" as="sourcePoint" />
            <mxPoint x="30" y="320" as="targetPoint" />
          </mxGeometry>
        </mxCell>
        <mxCell id="df5G3sbtZlax2ATc57wT-11" value="" style="shape=flexArrow;endArrow=classic;html=1;rounded=0;" edge="1" parent="1">
          <mxGeometry width="50" height="50" relative="1" as="geometry">
            <mxPoint x="-30" y="380" as="sourcePoint" />
            <mxPoint x="30" y="410" as="targetPoint" />
          </mxGeometry>
        </mxCell>
        <mxCell id="df5G3sbtZlax2ATc57wT-12" value="Wygenerowanie pary kluczy RSA w aplikacji&lt;br&gt;(kod QR z kluczem publicznym generowany automatycznie)" style="rounded=1;whiteSpace=wrap;html=1;fillColor=#dae8fc;strokeColor=#6c8ebf;opacity=80;" vertex="1" parent="1">
          <mxGeometry x="-60" y="100" width="200" height="90" as="geometry" />
        </mxCell>
        <mxCell id="df5G3sbtZlax2ATc57wT-13" value="" style="shape=flexArrow;endArrow=classic;html=1;rounded=0;" edge="1" parent="1">
          <mxGeometry width="50" height="50" relative="1" as="geometry">
            <mxPoint x="150" y="144.5" as="sourcePoint" />
            <mxPoint x="210" y="144.5" as="targetPoint" />
          </mxGeometry>
        </mxCell>
        <mxCell id="df5G3sbtZlax2ATc57wT-14" value="Udostępnienie obrazka z kodem QR kanałem komunikacji wybranym przez użytkownika" style="rounded=1;whiteSpace=wrap;html=1;fillColor=#dae8fc;strokeColor=#6c8ebf;opacity=80;" vertex="1" parent="1">
          <mxGeometry x="220" y="110" width="200" height="70" as="geometry" />
        </mxCell>
        <mxCell id="df5G3sbtZlax2ATc57wT-16" value="" style="curved=1;endArrow=classic;html=1;rounded=0;entryX=0;entryY=0.5;entryDx=0;entryDy=0;dashed=1;" edge="1" parent="1" target="df5G3sbtZlax2ATc57wT-12">
          <mxGeometry width="50" height="50" relative="1" as="geometry">
            <mxPoint x="430" y="140" as="sourcePoint" />
            <mxPoint x="-130" y="60" as="targetPoint" />
            <Array as="points">
              <mxPoint x="480" y="140" />
              <mxPoint x="470" y="80" />
              <mxPoint x="320" y="40" />
              <mxPoint x="-50" y="50" />
              <mxPoint x="-130" y="120" />
            </Array>
          </mxGeometry>
        </mxCell>
        <mxCell id="df5G3sbtZlax2ATc57wT-17" value="W razie konieczności powtórzenie procesu&lt;br&gt;(wówczas komunikacja z użytkownikiem&lt;br&gt;przy użyciu jego starego klucza nie jest możliwa)" style="text;html=1;align=center;verticalAlign=middle;resizable=0;points=[];autosize=1;strokeColor=none;fillColor=none;" vertex="1" parent="1">
          <mxGeometry x="50" y="-20" width="280" height="60" as="geometry" />
        </mxCell>
        <mxCell id="df5G3sbtZlax2ATc57wT-18" value="Rozpowszechnianie klucza publicznego" style="text;html=1;align=center;verticalAlign=middle;resizable=0;points=[];autosize=1;strokeColor=none;fillColor=none;fontSize=17;fontStyle=1" vertex="1" parent="1">
          <mxGeometry x="10" y="-60" width="350" height="30" as="geometry" />
        </mxCell>
        <mxCell id="df5G3sbtZlax2ATc57wT-19" value="Odbiór klucza publicznego" style="text;html=1;align=center;verticalAlign=middle;resizable=0;points=[];autosize=1;strokeColor=none;fillColor=none;fontSize=17;fontStyle=1" vertex="1" parent="1">
          <mxGeometry x="70" y="250" width="240" height="30" as="geometry" />
        </mxCell>
      </root>
    </mxGraphModel>
  </diagram>
</mxfile>
